# xmcd
#
# Track frame offsets:
#	150
#	31534
#	49980
#	75141
#	97424
#	131341
#	154789
#	187578
#	203723
#	238740
#	256485
#
# Disc length: 3882 seconds
#
# Revision: 2285354461
# Processed by: cddbd v1.5.2PL0 Copyright (c) Steve Scherf et al.
# Submitted via: EZCDAudioConverter 8.1.0.1
#
DISCID=810f280b
DTITLE=Drive-By Truckers - It's Great To Be Alive! [Live] 
DYEAR=2015
DGENRE=Country
TTITLE0=Used To Be A Cop
TTITLE1=Shit Shots Count
TTITLE2=Runaway Train
TTITLE3=A Ghost To Most
TTITLE4=Goode's Field Road
TTITLE5=Uncle Frank
TTITLE6=Putting People On The Moon
TTITLE7=First Air Of Autumn
TTITLE8=Box Of Spiders
TTITLE9=When The Pin Hits The Shell
TTITLE10=A World Of Hurt
EXTD=
EXTT0=
EXTT1=
EXTT2=
EXTT3=
EXTT4=
EXTT5=
EXTT6=
EXTT7=
EXTT8=
EXTT9=
EXTT10=
PLAYORDER=
